<?xml version="1.0" standalone="no"?>
<!DOCTYPE svg PUBLIC "-//W3C//DTD SVG 1.0//EN" "http://www.w3.org/TR/2001/REC-SVG-20010904/DTD/svg10.dtd">
<svg xmlns="http://www.w3.org/2000/svg" xmlns:xlink="http://www.w3.org/1999/xlink" id="body_1" width="30" height="30">

<g transform="matrix(0.036900368 0 0 0.036900368 0 0)">
	<g transform="matrix(0.9998156 0 0 0.99977374 0 0)">
	</g>
    <path transform="matrix(0.9998156 0 0 0.99977374 0 0)"  d="M374.575 0.209C 372.67502 0.409 366.575 1.109 361.075 1.609C 282.875 9.809 205.87502 42.909 143.07501 95.509C 131.475 105.109 105.07501 131.509 95.47501 143.10901C 43.475014 205.20901 13.075012 274.909 1.8750153 357.409C -0.62498474 375.70898 -0.62498474 437.509 1.8750153 455.809C 13.075015 538.30896 43.475014 608.009 95.47501 670.109C 105.07501 681.709 131.475 708.109 143.07501 717.709C 205.17502 769.709 274.875 800.109 357.375 811.30896C 375.675 813.80896 437.475 813.80896 455.775 811.30896C 538.275 800.10895 607.975 769.709 670.075 717.709C 681.675 708.109 708.075 681.709 717.675 670.109C 769.675 608.00903 800.075 538.309 811.27496 455.80902C 813.77496 437.50903 813.77496 375.709 811.27496 357.40903C 800.07495 274.90903 769.675 205.20903 717.675 143.10902C 708.075 131.50902 681.675 105.109024 670.075 95.509026C 608.175 43.709026 537.775 12.909027 456.375 2.0090256C 447.575 0.8090255 434.775 0.30902553 411.075 0.1090256C 392.975 -0.090974405 376.475 0.009025596 374.575 0.20902559L374.575 0.20902559L374.575 0.209zM379.575 43.409C 379.575 55.109 380.375 80.509 381.475 104.609C 382.075 116.409004 382.775 133.309 383.075 142.10901C 384.17502 173.309 387.475 255.20901 387.975 262.509L387.975 262.509L388.475 269.809L383.975 269.309C 381.475 269.10898 379.17502 268.509 378.775 268.20898C 378.475 267.809 377.775 260.909 377.375 252.80899C 375.575 217.20898 369.675 79.10899 369.075 58.908997L369.075 58.908997L368.475 36.708996L371.275 36.308994C 372.775 36.108994 375.275 35.808994 376.875 35.708996L376.875 35.708996L379.575 35.608997zM475.27502 41.009C 475.37503 41.108997 475.67502 71.309 475.97504 108.10899C 476.37503 145.009 476.87503 178.109 477.17505 181.70898C 477.47504 185.40898 477.37506 188.60898 476.87506 188.80899C 476.47507 189.109 473.97507 189.109 471.47507 188.80899L471.47507 188.80899L466.87506 188.409L466.17505 159.30899C 465.77505 143.20898 465.27505 125.40899 465.07504 119.60899C 464.27505 101.909 463.57504 41.80899 464.17505 40.30899C 464.57504 39.208992 465.67505 39.10899 469.87506 39.80899C 472.77505 40.40899 475.17505 40.90899 475.27505 41.00899zM243.97502 74.509C 244.57503 75.409004 249.27502 130.509 255.07503 202.60901C 256.97504 227.10901 258.87503 249.509 259.17502 252.309C 259.67502 257.409 259.575 257.609 256.37503 259.609C 254.57503 260.709 252.77502 261.609 252.37503 261.609C 252.07503 261.609 251.47504 259.009 251.17503 255.809C 249.77504 242.809 244.37503 180.009 240.57503 134.60901C 238.37503 107.90901 236.37503 84.00901 236.07503 81.40901C 235.57503 77.00901 235.67503 76.60901 238.27502 75.209015C 241.47502 73.50902 243.27502 73.209015 243.97502 74.50902zM519.275 94.609C 522.075 95.609 522.375 96.109 522.97504 101.809C 523.97504 111.809 523.67505 159.609 522.575 159.609C 519.675 159.609 513.675 156.209 513.175 154.30899C 512.875 153.109 512.575 138.909 512.575 122.80899C 512.575 90.30899 512.175 92.20899 519.275 94.60899zM334.575 99.309C 334.575 102.008995 335.27502 116.909 336.075 132.609C 336.875 148.30899 337.77502 168.20898 338.17502 176.80899C 338.87503 194.20898 339.075 193.609 332.37503 194.00899C 329.07504 194.109 329.07504 194.109 328.87503 189.109C 328.67502 186.30899 328.17502 177.609 327.57504 169.609C 327.07504 161.609 325.87503 144.30899 325.07504 131.109C 324.27505 117.909 323.27505 104.80899 322.97504 102.008995C 322.37503 97.008995 322.47504 96.809 325.17505 95.809C 326.77505 95.209 329.57504 94.709 331.37506 94.709C 334.57507 94.609 334.57507 94.609 334.57507 99.309zM611.975 113.008995L615.375 114.409L616.075 127.809C 616.375 135.109 616.575 150.909 616.375 162.80899L616.375 162.80899L616.075 184.609L611.875 182.50899L607.675 180.50899L607.375 147.30899C 607.175 129.00899 607.275 113.50899 607.475 112.80899C 607.875 111.30899 607.875 111.30899 611.975 113.00899zM429.37497 126.10899C 429.97498 126.70899 431.37497 175.20898 431.47498 199.80899L431.47498 199.80899L431.57498 214.609L426.87497 213.909C 424.17496 213.609 421.97498 213.30899 421.87497 213.209C 421.57498 213.009 418.57498 138.909 418.57498 131.709L418.57498 131.709L418.57498 124.309L423.675 124.909C 426.57498 125.309 429.07498 125.809 429.375 126.10899zM659.675 133.209C 660.875 134.609 661.075 156.509 661.375 277.30902C 661.675 416.00903 661.675 419.609 659.875 419.609C 658.775 419.609 657.275 419.009 656.375 418.30902C 654.875 417.209 654.675 405.109 654.175 286.609C 653.77496 214.809 653.27496 149.60901 652.975 141.70901L652.975 141.70901L652.375 127.30901L655.275 129.40901C 656.97504 130.60901 658.875 132.309 659.67505 133.20901zM569.975 153.709C 570.475 154.109 570.975 159.809 571.07495 166.309C 571.57495 188.40901 571.6749 323.909 571.1749 324.30902C 570.9749 324.50903 569.1749 324.00903 567.1749 323.209L567.1749 323.209L563.57495 321.709L563.57495 151.60901L566.37494 152.20901C 567.87494 152.60901 569.4749 153.20901 569.9749 153.70901zM293.97498 159.309C 294.27496 162.009 294.77496 168.10901 295.07498 173.10901C 295.37497 178.009 296.07498 189.20901 296.675 197.90901C 297.875 215.50902 297.675 216.60901 291.97498 216.60901C 288.97498 216.60901 288.57498 216.309 288.175 213.309C 287.175 207.40901 283.675 158.20901 284.175 157.409C 284.675 156.709 289.875 154.909 292.275 154.709C 292.875 154.609 293.675 156.709 293.975 159.309zM128.57498 184.809C 129.67499 195.40901 131.87498 217.60901 133.47498 234.10901C 135.17497 250.60901 136.57498 264.609 136.57498 265.209C 136.57498 266.40903 128.87498 270.209 128.07498 269.40903C 127.57498 268.90903 117.57498 180.40903 117.57498 176.40903C 117.57498 174.00903 125.27498 163.90903 126.27498 165.00903C 126.57498 165.20903 127.57498 174.10904 128.57498 184.80904zM520.675 195.309L523.575 197.009L523.675 218.60901C 523.77496 230.40901 523.975 243.60901 523.975 247.90901C 524.175 256.909 523.07495 258.409 517.675 256.509L517.675 256.509L514.575 255.409L514.575 246.80899C 514.575 242.00899 514.275 228.109 513.875 215.80899L513.875 215.80899L513.275 193.609L515.575 193.609C 516.775 193.609 519.075 194.409 520.675 195.30899zM172.47498 234.10901C 174.27498 253.309 177.17497 285.709 179.07498 306.109L179.07498 306.109L182.47498 343.109L178.57498 347.009L174.77498 350.909L174.07498 343.009C 173.67499 338.609 171.67499 318.209 169.57498 297.609C 167.47498 277.009 164.47498 247.10901 162.97498 231.20901L162.97498 231.20901L160.17497 202.40901L164.07497 198.809C 167.57497 195.509 167.97496 195.40901 168.67497 197.209C 169.07497 198.209 170.77498 214.809 172.47498 234.10901zM97.574974 246.20901C 99.77497 265.90903 105.574974 318.30902 110.574974 362.609C 115.574974 406.909 120.27497 449.609 121.17497 457.609C 121.974976 465.609 123.37497 477.709 124.17497 484.609C 125.574974 496.30902 125.574974 497.109 123.974976 498.30902C 121.574974 500.109 120.574974 499.90903 120.574974 497.80902C 120.574974 496.90903 119.67497 489.30902 118.574974 481.109C 116.77497 467.409 113.77497 444.209 107.074974 392.109C 105.67497 381.609 102.974976 360.709 101.074974 345.609C 99.074974 330.509 96.17497 308.009 94.574974 295.609C 92.974976 283.209 90.27497 262.009 88.574974 248.309C 86.77497 234.709 85.67497 222.60901 85.974976 221.309C 86.67497 218.60901 92.574974 209.209 93.17497 209.809C 93.37497 210.10901 95.37497 226.40901 97.574974 246.20901zM66.974976 289.30902C 68.474976 301.30902 71.27498 323.209 73.17497 338.109C 75.074974 352.909 77.474976 371.409 78.574974 379.109L78.574974 379.109L80.474976 393.109L78.37498 394.909C 77.17498 395.909 75.974976 396.309 75.574974 395.909C 75.17497 395.509 74.37498 391.509 73.77497 387.109L73.77497 387.109L66.67497 338.109L68.974976 331.30902C 70.17497 327.609 71.474976 324.609 71.77498 324.609C 72.17498 324.609 73.67498 334.409 75.27498 346.30902zM615.975 276.209C 617.375 277.609 617.57495 283.80902 617.57495 329.709L617.57495 329.709L617.57495 381.609L614.77496 381.609C 608.675 381.609 608.77496 383.109 608.37494 326.30902L608.37494 326.30902L608.07495 274.609L611.27496 274.609C 612.975 274.609 615.175 275.30902 615.975 276.209zM397.07498 294.109C 419.675 297.509 439.37497 303.80902 458.87497 313.80902C 471.47498 320.30902 477.47498 324.80902 491.47498 338.209C 512.27496 358.109 525.07495 375.509 537.07495 400.109C 554.57495 435.909 561.37494 467.609 569.975 552.609C 573.875 590.709 578.975 659.809 580.07495 688.109C 580.37494 696.309 581.07495 709.809 581.6749 718.109C 582.7749 735.709 584.07495 733.309 568.57495 740.809C 547.07495 751.20905 526.37494 758.409 499.07495 765.109C 465.67496 773.309 444.07495 775.909 411.07495 776.00903L411.07495 776.00903L387.07495 776.109L387.27496 764.609C 387.27496 758.309 387.87497 743.609 388.47498 732.109C 391.47498 676.409 390.87497 606.109 386.97498 567.109C 384.77496 544.709 380.47498 517.50903 378.07498 511.509C 377.57498 510.209 379.87497 509.109 389.775 505.709C 407.875 499.40903 423.57498 491.509 425.975 487.609C 430.275 480.209 422.575 469.609 412.775 469.609C 411.07498 469.609 405.975 471.409 401.275 473.509C 378.875 483.809 333.97498 495.909 308.075 498.609C 290.17502 500.509 262.375 499.409 243.07501 495.909C 232.57501 494.009 213.77501 486.909 198.07501 478.809C 179.975 469.409 168.87502 456.909 165.57501 442.10898C 163.77501 434.10898 164.27501 418.10898 166.57501 409.10898C 169.07501 399.20898 176.07501 384.809 182.475 376.40897C 210.975 338.90897 269.77502 306.40897 330.075 295.00897C 349.27502 291.40897 376.475 291.00897 397.075 294.10898zM705.57495 297.209C 709.1749 298.709 709.57495 299.109 709.57495 302.509C 709.77496 329.809 709.1749 392.20898 708.6749 394.80902C 708.57495 395.709 703.37494 395.80902 701.1749 395.00903C 699.7749 394.50903 699.57495 389.10904 699.57495 345.00903C 699.57495 313.40903 699.975 295.60904 700.57495 295.60904C 701.07495 295.60904 703.37494 296.30905 705.57495 297.20905zM749.27496 352.109L752.87494 353.609L752.1749 436.409C 751.37494 541.909 751.2749 545.009 747.4749 554.109C 741.2749 569.00903 741.5749 572.00903 742.1749 506.609C 742.37494 473.909 742.87494 440.80902 743.07495 433.109C 743.27496 425.409 743.475 403.709 743.57495 384.80902C 743.57495 362.00903 743.87494 350.609 744.57495 350.609C 745.1749 350.609 747.27496 351.30902 749.27496 352.109zM147.87494 377.009C 148.47495 385.109 148.27493 385.909 145.37494 392.309L145.37494 392.309L142.17494 399.10898L140.97495 389.10898C 139.07495 373.10898 139.07495 372.40897 142.87494 370.00897C 144.57494 368.80896 146.37494 368.00897 146.67494 368.20898C 146.97495 368.409 147.57494 372.409 147.87494 377.00897zM86.074936 437.309C 86.97494 445.509 93.97494 499.909 97.574936 526.609C 102.97494 567.909 103.37494 573.809 100.97494 571.309C 100.674934 571.00903 98.37494 557.109 95.97494 540.409C 80.37494 432.609 80.47494 433.309 81.77494 432.509C 84.47494 430.709 85.37494 431.709 86.07494 437.309zM158.07494 483.10898C 158.67494 485.60898 161.57494 512.709 161.57494 516.009C 161.57494 518.80896 157.97493 521.409 156.37494 519.80896C 155.87494 519.30896 154.57494 510.80896 153.57494 501.00897C 152.47493 491.10898 151.37494 480.80896 151.07494 478.10898L151.07494 478.10898L150.47493 473.10898L153.97493 477.10898C 155.97493 479.309 157.77493 482.00897 158.07494 483.10898zM238.77493 520.80896C 239.87494 521.80896 240.57494 525.80896 241.47493 536.60895C 242.97493 556.10895 243.17493 554.60895 239.07494 554.60895C 234.87494 554.60895 234.97493 554.90894 233.57494 537.30896C 232.17494 519.40894 232.17494 519.60895 234.87494 519.60895C 236.17494 519.60895 237.87494 520.2089 238.77493 520.80896zM317.9749 522.30896C 318.17493 523.30896 318.67493 529.30896 319.07492 535.60895C 319.3749 541.90894 320.27493 556.10895 321.07492 567.10895C 323.8749 607.509 323.9749 612.60895 322.27493 612.60895C 320.37494 612.60895 320.17493 611.10895 317.97495 582.60895C 317.17496 570.80896 315.67496 552.2089 314.67496 541.30896C 313.77496 530.40894 313.17496 521.30896 313.47495 521.10895C 314.57495 519.90894 317.47495 520.80896 317.97495 522.30896zM129.97491 541.509C 130.57492 542.409 134.37491 574.409 139.07492 618.10895C 140.47491 631.30896 141.87492 644.009 142.17493 646.40894L142.17493 646.40894L142.67493 650.7089L140.17493 649.10895C 138.27493 647.80896 137.57492 646.509 137.57492 644.2089C 137.57492 637.90894 133.27492 596.40894 129.97491 571.0089C 128.07492 556.6089 126.57491 543.90894 126.57491 542.7089C 126.57491 540.60895 128.97491 539.8089 129.97491 541.5089zM707.0749 583.30896L706.3749 625.10895L703.8749 628.80896C 698.17487 637.209 698.47485 638.80896 698.7749 592.009L698.7749 592.009L698.9749 549.10895L702.6749 545.30896C 704.6749 543.30896 706.6749 541.60895 707.07495 541.60895C 707.37494 541.60895 707.37494 560.40894 707.07495 583.30896zM614.5749 649.60895C 615.0749 707.7089 614.9749 712.2089 613.3749 714.009C 612.3749 715.10895 611.47485 715.80896 611.17487 715.509C 610.47485 714.709 609.47485 588.009 610.27484 587.30896C 610.67487 586.90894 611.67487 586.709 612.5748 586.80896C 613.8748 587.10895 614.1748 594.209 614.5748 649.60895zM287.97488 609.80896C 288.6749 616.009 291.1749 645.709 292.1749 659.709C 292.7749 669.109 292.7749 669.409 290.5749 670.109C 289.37488 670.50903 287.97488 670.409 287.5749 669.909C 286.87488 669.209 284.6749 647.009 281.97488 612.809L281.97488 612.809L281.27487 604.609L284.37488 604.609C 287.27487 604.609 287.47488 604.809 287.97488 609.809zM209.37488 644.80896C 210.07487 645.509 210.57487 648.009 210.57487 650.509C 210.57487 653.10895 211.77487 666.60895 213.07487 680.60895C 216.87488 718.90894 217.17488 724.10895 215.47487 723.10895C 212.87486 721.60895 210.57487 719.30896 211.07487 718.7089C 211.27487 718.3089 210.87488 713.3089 210.07487 707.60895C 209.37488 701.80896 208.47487 692.40894 208.07487 686.60895C 207.67488 680.80896 206.77487 670.2089 205.97487 663.10895C 204.07487 645.60895 204.17487 643.60895 206.37486 643.60895C 207.37486 643.60895 208.67487 644.10895 209.37486 644.80896zM256.67487 712.10895C 256.97485 714.30896 257.57486 722.509 257.97485 730.30896C 258.67487 745.30896 258.37485 746.40894 254.27486 743.30896C 253.07486 742.40894 252.27486 738.60895 251.07486 727.209C 248.97485 706.609 248.87486 707.409 252.77486 707.80896C 255.67485 708.10895 256.07486 708.509 256.67487 712.10895z" stroke="none" fill="#222222" fill-rule="nonzero" />
	<g transform="matrix(0.9998156 0 0 0.99977374 0 0)">
	</g>
    <path transform="matrix(0.9998156 0 0 0.99977374 0 0)"  d="M220.975 342.009C 210.57501 346.509 209.77501 360.609 219.57501 365.609C 226.67502 369.209 233.87502 367.509 237.57501 361.30902C 244.57501 349.90903 233.17502 336.709 220.975 342.00903L220.975 342.00903L220.975 342.009zM288.77502 351.609C 279.17502 357.509 279.17502 371.709 288.77502 377.609C 298.27502 383.30902 310.575 375.80902 310.575 364.409C 310.575 353.409 297.975 346.009 288.77502 351.609z" stroke="none" fill="#222222" fill-rule="nonzero" />
</g>
</svg>
